<svg xmlns="http://www.w3.org/2000/svg" id="a" viewBox="0 0 391.25 184.25"><defs><style>.b{fill:#10069f;}</style></defs><polygon class="b" points="0 0 0 69.01 0 69.01 0 115.26 0 115.26 0 184.25 0 184.25 184.25 184.25 184.25 138 46.26 138 46.26 115.26 184.25 115.26 184.25 69.01 46.26 69.01 46.26 46.25 184.25 46.26 184.25 0 46.26 0 46.26 0 0 0"></polygon><polygon class="b" points="391.25 0 322.25 0 322.25 0 276 0 276 0 207 0 207 0 207 184.25 253.26 184.25 253.26 46.26 276 46.26 275.99 184.25 322.25 184.25 322.25 46.26 345 46.26 345 184.25 391.25 184.25 391.25 46.26 391.25 46.26 391.25 0"></polygon></svg>